<?xml version="1.0" encoding="iso-8859-1"?>
<!-- Generator: Adobe Illustrator 19.0.0, SVG Export Plug-In . SVG Version: 6.00 Build 0)  -->
<svg version="1.1" id="Capa_1" xmlns="http://www.w3.org/2000/svg" xmlns:xlink="http://www.w3.org/1999/xlink" x="0px" y="0px"
	 viewBox="0 0 512.003 512.003" style="enable-background:new 0 0 512.003 512.003;" xml:space="preserve">
<g>
	<g>
		<path d="M348.973,6.659c-2.976-4.192-7.808-6.656-12.96-6.656h-160c-6.88,0-12.992,4.416-15.168,10.944l-160,480
			c-1.664,4.864-0.832,10.24,2.176,14.4c3.008,4.192,7.84,6.656,12.992,6.656h102.336c41.408,0,77.984-26.368,91.072-65.632
			l141.76-425.28C352.813,16.195,352.013,10.819,348.973,6.659z M179.053,436.259c-8.704,26.144-33.12,43.744-60.704,43.744H38.221
			l149.312-448h126.304L179.053,436.259z"/>
	</g>
</g>
<g>
	<g>
		<path d="M511.181,490.947l-160-480c-2.816-8.384-11.872-12.928-20.256-10.112c-8.352,2.784-12.896,11.84-10.112,20.224
			l153.024,458.944h-80.224c-27.584,0-51.936-17.6-60.64-43.776l-61.76-185.28c-2.816-8.384-11.872-12.928-20.256-10.112
			c-8.384,2.784-12.928,11.84-10.112,20.224l61.728,185.28c13.088,39.296,49.696,65.664,91.04,65.664h102.4
			c5.152,0,9.984-2.464,12.96-6.656C511.981,501.187,512.813,495.811,511.181,490.947z"/>
	</g>
</g>
<g>
</g>
<g>
</g>
<g>
</g>
<g>
</g>
<g>
</g>
<g>
</g>
<g>
</g>
<g>
</g>
<g>
</g>
<g>
</g>
<g>
</g>
<g>
</g>
<g>
</g>
<g>
</g>
<g>
</g>
</svg>
